<svg id="Capa_1" data-name="Capa 1" xmlns="http://www.w3.org/2000/svg" viewBox="0 0 649.92 216.1"><defs><style>.cls-1{fill:#0779b9;}</style></defs><title>logo grupo</title><path class="cls-1" d="M120.38,342.69a58.19,58.19,0,0,1-17.33,2.93c-9.47,0-16.33-2.39-21.11-6.93s-7.31-11.32-7.31-18.95c.07-17.26,12.63-27.11,29.65-27.11,6.7,0,11.86,1.31,14.4,2.46l-2.46,9.47c-2.85-1.3-6.32-2.23-12-2.23-9.78,0-17.25,5.47-17.25,16.79,0,10.79,6.78,17,16.41,17a17.82,17.82,0,0,0,5.7-.7V324.51h-8v-9.16h19.33Z" transform="translate(-74.63 -292.24)"/><path class="cls-1" d="M129.55,293.86a101.83,101.83,0,0,1,15.64-1.08c7.7,0,13.09,1.16,16.79,4.08,3.16,2.47,4.85,6.16,4.85,10.94a13.75,13.75,0,0,1-9.17,12.71v.23c3.62,1.46,5.63,4.85,6.94,9.63,1.61,5.93,3.15,12.71,4.16,14.71h-12c-.77-1.54-2.08-5.7-3.54-12.09-1.47-6.55-3.7-8.24-8.55-8.32h-3.47v20.41H129.55Zm11.63,22.34h4.62c5.85,0,9.32-2.93,9.32-7.47,0-4.7-3.23-7.17-8.62-7.17a22.72,22.72,0,0,0-5.32.39Z" transform="translate(-74.63 -292.24)"/><path class="cls-1" d="M186.55,293.16V323c0,9,3.47,13.56,9.4,13.56,6.16,0,9.55-4.31,9.55-13.56V293.16h11.71v29.12c0,16-8.09,23.65-21.64,23.65-13.1,0-20.73-7.32-20.73-23.8v-29Z" transform="translate(-74.63 -292.24)"/><path class="cls-1" d="M227.38,293.86a95.62,95.62,0,0,1,15.87-1.08c7.24,0,12.4,1.39,15.87,4.16a15,15,0,0,1,5.54,12c0,5.09-1.62,9.48-4.77,12.33-4,3.7-9.94,5.47-16.87,5.47a20.28,20.28,0,0,1-4-.31v18.64H227.38ZM239,317.43a17.57,17.57,0,0,0,3.93.31c6.24,0,10.09-3.16,10.09-8.4,0-4.78-3.31-7.62-9.24-7.62a21.17,21.17,0,0,0-4.78.38Z" transform="translate(-74.63 -292.24)"/><path class="cls-1" d="M319.66,318.58c0,17.1-10.24,27.35-25.49,27.35s-24.42-11.63-24.42-26.5c0-15.56,10-27.19,25.26-27.19,15.95,0,24.65,11.94,24.65,26.34m-37.51.62c0,10.24,4.78,17.41,12.63,17.41s12.48-7.55,12.48-17.64c0-9.4-4.39-17.41-12.48-17.41s-12.63,7.55-12.63,17.64" transform="translate(-74.63 -292.24)"/><path class="cls-1" d="M342.93,293.86a95.62,95.62,0,0,1,15.87-1.08c7.24,0,12.4,1.39,15.86,4.16a14.94,14.94,0,0,1,5.55,12c0,5.09-1.62,9.48-4.78,12.33-4,3.7-9.93,5.47-16.87,5.47a20.17,20.17,0,0,1-4-.31v18.64H342.93Zm11.63,23.57a17.57,17.57,0,0,0,3.93.31c6.24,0,10.09-3.16,10.09-8.4,0-4.78-3.31-7.62-9.24-7.62a21.1,21.1,0,0,0-4.78.38Z" transform="translate(-74.63 -292.24)"/><path class="cls-1" d="M399.39,293.16V323c0,9,3.47,13.56,9.4,13.56,6.16,0,9.55-4.31,9.55-13.56V293.16h11.71v29.12c0,16-8.09,23.65-21.64,23.65-13.1,0-20.73-7.32-20.73-23.8v-29Z" transform="translate(-74.63 -292.24)"/><polygon class="cls-1" points="396.48 30.89 377.38 30.89 377.38 43.21 398.72 43.21 398.72 52.84 365.67 52.84 365.67 0.93 397.64 0.93 397.64 10.55 377.38 10.55 377.38 21.34 396.48 21.34 396.48 30.89"/><path class="cls-1" d="M481.36,293.86A101.79,101.79,0,0,1,497,292.78c7.71,0,13.1,1.16,16.8,4.08,3.15,2.47,4.85,6.16,4.85,10.94a13.75,13.75,0,0,1-9.17,12.71v.23c3.62,1.46,5.62,4.85,6.93,9.63,1.62,5.93,3.16,12.71,4.16,14.71h-12c-.77-1.54-2.08-5.7-3.55-12.09-1.46-6.55-3.69-8.24-8.55-8.32H493v20.41H481.36ZM493,316.2h4.62c5.85,0,9.32-2.93,9.32-7.47,0-4.7-3.24-7.17-8.63-7.17A22.61,22.61,0,0,0,493,302Z" transform="translate(-74.63 -292.24)"/><polygon class="cls-1" points="462.5 10.79 448.48 10.79 448.48 0.93 488.38 0.93 488.38 10.79 474.21 10.79 474.21 52.84 462.5 52.84 462.5 10.79"/><path class="cls-1" d="M614.54,318.58c0,17.1-10.24,27.35-25.5,27.35s-24.41-11.63-24.41-26.5c0-15.56,10-27.19,25.26-27.19,16,0,24.65,11.94,24.65,26.34M577,319.2c0,10.24,4.77,17.41,12.63,17.41s12.48-7.55,12.48-17.64c0-9.4-4.39-17.41-12.48-17.41S577,309.11,577,319.2" transform="translate(-74.63 -292.24)"/><path class="cls-1" d="M637.81,293.94a102.68,102.68,0,0,1,15.79-1.16c9.94,0,16.41,1.85,21.33,5.54,5.4,4,8.79,10.4,8.79,19.57,0,9.94-3.62,16.79-8.55,21-5.47,4.54-13.87,6.7-24,6.7a101.65,101.65,0,0,1-13.33-.77Zm11.71,42.28a22.07,22.07,0,0,0,4.08.23c10.71.08,17.72-5.77,17.72-18.17,0-10.79-6.32-16.49-16.49-16.49a25,25,0,0,0-5.31.46Z" transform="translate(-74.63 -292.24)"/><polygon class="cls-1" points="647.69 30.89 628.58 30.89 628.58 43.21 649.92 43.21 649.92 52.84 616.87 52.84 616.87 0.93 648.84 0.93 648.84 10.55 628.58 10.55 628.58 21.34 647.69 21.34 647.69 30.89"/><path class="cls-1" d="M237.89,419c-2.08,1-7,2.23-13.25,2.23-17.94,0-27.19-11.24-27.19-26,0-17.72,12.64-27.5,28.35-27.5,6.09,0,10.71,1.16,12.79,2.31l-2.47,9.24a24.77,24.77,0,0,0-9.86-1.92c-9.24,0-16.48,5.62-16.48,17.17,0,10.4,6.16,16.95,16.56,16.95a28,28,0,0,0,9.86-1.69Z" transform="translate(-74.63 -292.24)"/><path class="cls-1" d="M258.54,407.06l-3.7,13.33H242.75l15.79-51.92H274l16.17,51.92H277.41l-4-13.33Zm13.17-8.78-3.23-11c-.93-3.09-1.85-6.94-2.62-10h-.16c-.77,3.08-1.54,7-2.39,10l-3.08,11Z" transform="translate(-74.63 -292.24)"/><path class="cls-1" d="M297,369.16a103.28,103.28,0,0,1,15.63-1.07c7.71,0,13.1,1.15,16.8,4.08,3.16,2.46,4.85,6.16,4.85,10.93a13.74,13.74,0,0,1-9.17,12.71v.24c3.62,1.46,5.63,4.85,6.94,9.62,1.61,5.93,3.15,12.71,4.16,14.72h-12c-.77-1.54-2.08-5.7-3.55-12.1s-3.69-8.24-8.54-8.32h-3.47v20.42H297Zm11.63,22.34h4.62c5.85,0,9.32-2.93,9.32-7.47,0-4.7-3.23-7.16-8.63-7.16a23.49,23.49,0,0,0-5.31.38Z" transform="translate(-74.63 -292.24)"/><polygon class="cls-1" points="278.12 86.09 264.1 86.09 264.1 76.23 304 76.23 304 86.09 289.83 86.09 289.83 128.15 278.12 128.15 278.12 86.09"/><path class="cls-1" d="M391.42,407.06l-3.7,13.33H375.63l15.79-51.92h15.41L423,420.39H410.29l-4-13.33Zm13.17-8.78-3.24-11c-.92-3.09-1.84-6.94-2.61-10h-.16c-.77,3.08-1.54,7-2.39,10l-3.08,11Z" transform="translate(-74.63 -292.24)"/><path class="cls-1" d="M471.3,418A58.23,58.23,0,0,1,454,420.92c-9.48,0-16.33-2.38-21.11-6.93s-7.31-11.32-7.31-18.95c.07-17.25,12.63-27.11,29.65-27.11,6.7,0,11.86,1.31,14.41,2.47l-2.47,9.47c-2.85-1.31-6.32-2.23-12-2.23-9.78,0-17.25,5.47-17.25,16.79,0,10.78,6.78,17,16.41,17a18.19,18.19,0,0,0,5.7-.69V399.82h-8v-9.17H471.3Z" transform="translate(-74.63 -292.24)"/><polygon class="cls-1" points="436.73 106.19 417.63 106.19 417.63 118.52 438.96 118.52 438.96 128.15 405.92 128.15 405.92 76.23 437.89 76.23 437.89 85.86 417.63 85.86 417.63 96.64 436.73 96.64 436.73 106.19"/><path class="cls-1" d="M521.6,420.39V368.47h13.71l10.79,19a162.94,162.94,0,0,1,8.47,17.79h.16a212.31,212.31,0,0,1-.93-21.72v-15.1h10.79v51.92H552.26l-11.09-20a176.11,176.11,0,0,1-9-18.33h-.31c.38,6.93.54,14.25.54,22.72v15.64Z" transform="translate(-74.63 -292.24)"/><path class="cls-1" d="M586.85,407.06l-3.7,13.33H571.06l15.79-51.92h15.41l16.17,51.92H605.72l-4-13.33ZM600,398.28l-3.23-11c-.93-3.09-1.85-6.94-2.62-10H594c-.77,3.08-1.54,7-2.39,10l-3.08,11Z" transform="translate(-74.63 -292.24)"/><path class="cls-1" d="M143.86,475.51l3.08,11.65c.62,2.56,1.23,4.93,1.66,7.3h.14c.52-2.32,1.28-4.79,2-7.25l3.74-11.7H158L161.58,487c.85,2.75,1.51,5.17,2,7.49h.14a68.75,68.75,0,0,1,1.75-7.44l3.27-11.51h4.12l-7.39,22.93h-3.79l-3.5-10.95a74.94,74.94,0,0,1-2-7.53h-.1a69,69,0,0,1-2.08,7.58l-3.7,10.9h-3.79l-6.91-22.93Z" transform="translate(-74.63 -292.24)"/><path class="cls-1" d="M179.3,475.51l3.07,11.65c.62,2.56,1.24,4.93,1.67,7.3h.14c.52-2.32,1.27-4.79,2-7.25l3.75-11.7h3.5L197,487c.85,2.75,1.51,5.17,2,7.49h.15A66.46,66.46,0,0,1,201,487l3.27-11.51h4.12L201,498.44h-3.79l-3.51-10.95a77.71,77.71,0,0,1-2-7.53h-.09a66.84,66.84,0,0,1-2.09,7.58l-3.69,10.9H182L175,475.51Z" transform="translate(-74.63 -292.24)"/><path class="cls-1" d="M214.73,475.51l3.08,11.65c.62,2.56,1.23,4.93,1.66,7.3h.14c.52-2.32,1.28-4.79,2-7.25l3.74-11.7h3.51L232.45,487c.85,2.75,1.52,5.17,2,7.49h.14a71.19,71.19,0,0,1,1.75-7.44l3.27-11.51h4.13l-7.4,22.93h-3.79l-3.5-10.95a74.94,74.94,0,0,1-2-7.53H227a66.84,66.84,0,0,1-2.09,7.58l-3.69,10.9h-3.79l-6.92-22.93Z" transform="translate(-74.63 -292.24)"/><path class="cls-1" d="M245.1,496a2.82,2.82,0,0,1,2.84-3,2.76,2.76,0,0,1,2.8,3,2.81,2.81,0,0,1-2.89,3,2.79,2.79,0,0,1-2.75-3" transform="translate(-74.63 -292.24)"/><path class="cls-1" d="M255.9,483c0-2.93-.09-5.3-.19-7.48h3.7l.23,3.93h.1a9,9,0,0,1,8.15-4.41c5.59,0,9.76,4.69,9.76,11.61,0,8.24-5.07,12.32-10.47,12.32a8,8,0,0,1-7.06-3.6H260v12.46H255.9ZM260,489.1a6.59,6.59,0,0,0,.19,1.71,6.44,6.44,0,0,0,6.26,4.88c4.4,0,7-3.6,7-8.86,0-4.55-2.42-8.48-6.82-8.48a6.56,6.56,0,0,0-6.3,5.12,6.36,6.36,0,0,0-.29,1.65Z" transform="translate(-74.63 -292.24)"/><path class="cls-1" d="M302.05,492.14c0,2.41,0,4.5.18,6.3h-3.69l-.24-3.75h-.09a8.58,8.58,0,0,1-7.59,4.27c-3.6,0-7.91-2-7.91-10V475.51h4.17v12.65c0,4.36,1.38,7.34,5.12,7.34a6,6,0,0,0,5.5-3.84,5.83,5.83,0,0,0,.38-2.13v-14h4.17Z" transform="translate(-74.63 -292.24)"/><path class="cls-1" d="M311.28,487.73c.1,5.64,3.65,8,7.87,8a15,15,0,0,0,6.35-1.18l.76,3a18.76,18.76,0,0,1-7.68,1.47c-7.06,0-11.28-4.69-11.28-11.61S311.38,475,318.06,475c7.53,0,9.47,6.54,9.47,10.76a9.74,9.74,0,0,1-.14,1.94Zm12.23-3c0-2.61-1.09-6.73-5.78-6.73-4.27,0-6.07,3.84-6.4,6.73Z" transform="translate(-74.63 -292.24)"/><path class="cls-1" d="M332.69,482.66c0-2.7,0-5-.18-7.15h3.64l.19,4.55h.15a6.93,6.93,0,0,1,6.39-5,8.06,8.06,0,0,1,1.14.1v3.93a6.87,6.87,0,0,0-1.42-.09c-2.94,0-5,2.18-5.59,5.3a11.88,11.88,0,0,0-.15,2v12.22h-4.17Z" transform="translate(-74.63 -292.24)"/><path class="cls-1" d="M354.34,470v5.5h6v3.17h-6v12.37c0,2.84.81,4.45,3.13,4.45a7.82,7.82,0,0,0,2.42-.28l.19,3.17a11.26,11.26,0,0,1-3.7.57,6,6,0,0,1-4.5-1.75c-1.14-1.28-1.61-3.32-1.61-6V478.68h-3.55v-3.17h3.55v-4.27Z" transform="translate(-74.63 -292.24)"/><path class="cls-1" d="M385.47,486.78c0,8.48-5.92,12.18-11.42,12.18-6.16,0-11-4.55-11-11.8,0-7.63,5.07-12.13,11.37-12.13,6.59,0,11,4.79,11,11.75m-18.14.24c0,5,2.84,8.81,6.91,8.81s7-3.74,7-8.9c0-3.89-1.95-8.77-6.87-8.77s-7,4.55-7,8.86" transform="translate(-74.63 -292.24)"/><path class="cls-1" d="M407.07,497.63a16.05,16.05,0,0,1-6.58,1.33c-6.92,0-11.42-4.69-11.42-11.7S393.9,475,401.39,475a13.08,13.08,0,0,1,5.78,1.24l-.95,3.17a10.21,10.21,0,0,0-4.83-1.09c-5.26,0-8.1,3.93-8.1,8.67,0,5.31,3.41,8.58,8,8.58a11.9,11.9,0,0,0,5.11-1.09Z" transform="translate(-74.63 -292.24)"/><path class="cls-1" d="M428.06,492.94a38,38,0,0,0,.34,5.5h-3.75l-.33-2.89h-.14a8.55,8.55,0,0,1-7,3.41c-4.65,0-7-3.27-7-6.59,0-5.54,4.93-8.57,13.79-8.52v-.48c0-1.85-.52-5.3-5.21-5.26a11.06,11.06,0,0,0-6,1.71l-.94-2.8a14.87,14.87,0,0,1,7.57-2c7,0,8.72,4.79,8.72,9.34Zm-4-6.2c-4.55-.1-9.72.71-9.72,5.16a3.65,3.65,0,0,0,3.89,4,5.79,5.79,0,0,0,5.64-3.84,4.72,4.72,0,0,0,.19-1.32Z" transform="translate(-74.63 -292.24)"/><path class="cls-1" d="M434.79,482.66c0-2.7-.05-5-.19-7.15h3.65l.18,4.55h.15a6.93,6.93,0,0,1,6.39-5,8.06,8.06,0,0,1,1.14.1v3.93a6.82,6.82,0,0,0-1.42-.09c-2.94,0-5,2.18-5.59,5.3a13.15,13.15,0,0,0-.14,2v12.22h-4.17Z" transform="translate(-74.63 -292.24)"/><path class="cls-1" d="M456.44,470v5.5h6v3.17h-6v12.37c0,2.84.8,4.45,3.12,4.45a7.78,7.78,0,0,0,2.42-.28l.19,3.17a11.21,11.21,0,0,1-3.7.57,6,6,0,0,1-4.5-1.75c-1.13-1.28-1.61-3.32-1.61-6V478.68h-3.55v-3.17h3.55v-4.27Z" transform="translate(-74.63 -292.24)"/><path class="cls-1" d="M483.2,492.94a38,38,0,0,0,.34,5.5h-3.75l-.33-2.89h-.14a8.54,8.54,0,0,1-7,3.41c-4.64,0-7-3.27-7-6.59,0-5.54,4.92-8.57,13.78-8.52v-.48c0-1.85-.52-5.3-5.21-5.26a11.06,11.06,0,0,0-6,1.71l-.94-2.8a14.88,14.88,0,0,1,7.58-2c7,0,8.71,4.79,8.71,9.34Zm-4-6.2c-4.55-.1-9.72.71-9.72,5.16a3.66,3.66,0,0,0,3.89,4A5.78,5.78,0,0,0,479,492a4.72,4.72,0,0,0,.19-1.32Z" transform="translate(-74.63 -292.24)"/><path class="cls-1" d="M509.55,495.07c0,5.31-1.09,8.49-3.27,10.52a12.61,12.61,0,0,1-8.39,2.75,14.83,14.83,0,0,1-7.63-1.89l1.05-3.23a12.4,12.4,0,0,0,6.72,1.85c4.27,0,7.39-2.23,7.39-8.05v-2.51h-.09a8.12,8.12,0,0,1-7.3,3.83c-5.68,0-9.76-4.83-9.76-11.18,0-7.77,5.07-12.13,10.38-12.13A7.64,7.64,0,0,1,505.8,479h.1l.14-3.46h3.7c-.15,1.61-.19,3.5-.19,6.25Zm-4.17-10.51a5.47,5.47,0,0,0-.24-1.85,6,6,0,0,0-5.83-4.45c-4,0-6.82,3.36-6.82,8.67,0,4.5,2.32,8.24,6.77,8.24a6,6,0,0,0,5.79-4.26,7.53,7.53,0,0,0,.33-2.23Z" transform="translate(-74.63 -292.24)"/><path class="cls-1" d="M518.73,487.73c.1,5.64,3.65,8,7.87,8a15,15,0,0,0,6.35-1.18l.76,3A18.76,18.76,0,0,1,526,499c-7.06,0-11.27-4.69-11.27-11.61S518.83,475,525.51,475c7.53,0,9.48,6.54,9.48,10.76a9.61,9.61,0,0,1-.15,1.94Zm12.23-3c0-2.61-1.09-6.73-5.78-6.73-4.26,0-6.07,3.84-6.4,6.73Z" transform="translate(-74.63 -292.24)"/><path class="cls-1" d="M540.15,481.71c0-2.41,0-4.31-.19-6.2h3.7l.23,3.79h.1a8.49,8.49,0,0,1,7.58-4.27c3.17,0,8.1,1.9,8.1,9.76v13.65H555.5V485.22c0-3.69-1.37-6.77-5.31-6.77a6.09,6.09,0,0,0-5.87,6.2v13.79h-4.17Z" transform="translate(-74.63 -292.24)"/><path class="cls-1" d="M582.55,492.94a39.55,39.55,0,0,0,.33,5.5h-3.74l-.33-2.89h-.14a8.56,8.56,0,0,1-7,3.41c-4.64,0-7-3.27-7-6.59,0-5.54,4.93-8.57,13.79-8.52v-.48c0-1.85-.52-5.3-5.21-5.26a11.06,11.06,0,0,0-6,1.71l-1-2.8a14.9,14.9,0,0,1,7.58-2c7,0,8.72,4.79,8.72,9.34Zm-4-6.2c-4.54-.1-9.71.71-9.71,5.16a3.65,3.65,0,0,0,3.89,4,5.77,5.77,0,0,0,5.63-3.84,4.38,4.38,0,0,0,.19-1.32Z" transform="translate(-74.63 -292.24)"/><path class="cls-1" d="M588.28,496a2.83,2.83,0,0,1,2.84-3,2.76,2.76,0,0,1,2.8,3,2.81,2.81,0,0,1-2.89,3,2.79,2.79,0,0,1-2.75-3" transform="translate(-74.63 -292.24)"/><path class="cls-1" d="M615.43,497.63a16.15,16.15,0,0,1-6.59,1.33c-6.91,0-11.41-4.69-11.41-11.7S602.26,475,609.74,475a13,13,0,0,1,5.78,1.24l-.94,3.17a10.26,10.26,0,0,0-4.84-1.09c-5.26,0-8.1,3.93-8.1,8.67,0,5.31,3.41,8.58,8,8.58a12,12,0,0,0,5.12-1.09Z" transform="translate(-74.63 -292.24)"/><path class="cls-1" d="M640.77,486.78c0,8.48-5.92,12.18-11.41,12.18-6.16,0-11-4.55-11-11.8,0-7.63,5.06-12.13,11.36-12.13,6.59,0,11,4.79,11,11.75m-18.14.24c0,5,2.84,8.81,6.92,8.81s7-3.74,7-8.9c0-3.89-1.94-8.77-6.87-8.77s-7,4.55-7,8.86" transform="translate(-74.63 -292.24)"/><path class="cls-1" d="M646,481.71c0-2.41-.09-4.31-.19-6.2h3.65l.19,3.74h.14a7.93,7.93,0,0,1,7.25-4.22,6.76,6.76,0,0,1,6.44,4.6h.1a9.05,9.05,0,0,1,2.6-3,7.68,7.68,0,0,1,5-1.62c3.08,0,7.58,2,7.58,10v13.46h-4.08V485.5c0-4.45-1.66-7.05-5-7.05a5.48,5.48,0,0,0-5,3.74,7,7,0,0,0-.33,2.08v14.17h-4.07V484.7c0-3.65-1.61-6.25-4.79-6.25a5.73,5.73,0,0,0-5.16,4.17,5.44,5.44,0,0,0-.33,2v13.79H646Z" transform="translate(-74.63 -292.24)"/></svg>